<svg width="673" height="327" viewBox="0 0 673 327" fill="none" xmlns="http://www.w3.org/2000/svg">
<path d="M49.3122 52C49.3122 23.2812 72.5934 0 101.312 0H620.312C649.031 0 672.312 23.2812 672.312 52V275C672.312 303.719 649.031 327 620.312 327H101.312C72.5933 327 49.3122 303.719 49.3122 275V52Z" fill="#F7F6F7"/>
<path d="M54.6772 76.4978C56.874 78.509 60.2136 78.6042 62.5215 76.7215L76.1324 65.6178C77.0269 64.8881 77.6919 63.9159 78.0476 62.8177L88.031 32.0003C88.1277 31.702 88.4055 31.5 88.719 31.5C89.6146 31.5 89.7112 30.1932 88.8254 30.0615L6.90302 17.8838C1.04868 17.0136 -2.39621 24.2475 1.96931 28.2441L54.6772 76.4978Z" fill="#F7F6F7"/>
</svg>
